<svg width="92" height="39" viewBox="0 0 92 39" fill="none" xmlns="http://www.w3.org/2000/svg">
<g clip-path="url(#clip0)">
<path d="M15.7535 9.41506L15.4453 9.72356C15.3088 9.85978 15.2005 10.0216 15.1266 10.1998C15.0527 10.378 15.0147 10.569 15.0147 10.762C15.0147 10.9549 15.0527 11.1459 15.1266 11.3241C15.2005 11.5023 15.3088 11.6642 15.4453 11.8004L15.75 12.1053C15.8866 12.2416 15.995 12.4034 16.0689 12.5817C16.1429 12.7599 16.1809 12.951 16.1809 13.144C16.1809 13.337 16.1429 13.5281 16.0689 13.7064C15.995 13.8846 15.8866 14.0465 15.75 14.1827V14.1827C15.4748 14.458 15.1017 14.6126 14.7126 14.6126C14.3236 14.6126 13.9505 14.458 13.6753 14.1827L11.2935 11.7986C11.1573 11.6624 11.0492 11.5007 10.9755 11.3227C10.9017 11.1446 10.8638 10.9538 10.8638 10.7611C10.8638 10.5684 10.9017 10.3775 10.9755 10.1995C11.0492 10.0215 11.1573 9.85975 11.2935 9.72356L13.6724 7.33416C13.8085 7.19664 13.9706 7.08749 14.1491 7.01299C14.3277 6.9385 14.5192 6.90015 14.7126 6.90015C14.9061 6.90015 15.0976 6.9385 15.2762 7.01299C15.4547 7.08749 15.6168 7.19664 15.7529 7.33416L15.7582 7.33944C15.8942 7.47594 16.002 7.63795 16.0754 7.8162C16.1488 7.99445 16.1864 8.18543 16.1859 8.37822C16.1855 8.57102 16.1471 8.76183 16.0729 8.93975C15.9987 9.11766 15.8902 9.27918 15.7535 9.41506V9.41506Z" fill="#0069FF"/>
<path d="M49.4426 6.68083H50.0666C50.3744 6.68083 50.6696 6.80324 50.8873 7.02113C51.105 7.23902 51.2273 7.53454 51.2273 7.84269V19.7668C51.2273 20.075 51.105 20.3705 50.8873 20.5884C50.6696 20.8063 50.3744 20.9287 50.0666 20.9287H49.4426C49.1347 20.9287 48.8395 20.8063 48.6218 20.5884C48.4041 20.3705 48.2819 20.075 48.2819 19.7668V19.7522C47.6724 20.2555 46.9506 20.6044 46.1778 20.7692L46.0185 20.7979C45.059 20.9723 44.0759 20.9723 43.1164 20.7979L42.957 20.7692C41.3899 20.4396 40.1614 19.6601 39.2716 18.4308C38.3623 17.2007 37.9076 15.6563 37.9076 13.7974C37.9076 11.9288 38.3623 10.3748 39.2716 9.13534C40.181 7.90603 41.4239 7.13634 43.0004 6.82628L43.1457 6.78288C44.0872 6.62804 45.0477 6.62804 45.9892 6.78288L46.1345 6.82628C46.9665 7.00067 47.6823 7.33947 48.2819 7.84269C48.2819 7.53454 48.4041 7.23902 48.6218 7.02113C48.8395 6.80324 49.1347 6.68083 49.4426 6.68083V6.68083ZM48.2819 13.7834C48.2819 12.6104 48.045 11.6759 47.5711 10.9799C46.952 10.0696 45.9509 9.6147 44.5677 9.6151C43.1744 9.6151 42.1684 10.07 41.5497 10.9799C41.0852 11.6864 40.853 12.6248 40.853 13.7951C40.853 14.9654 41.0845 15.9006 41.5473 16.6009C42.1661 17.5205 43.1721 17.9804 44.5654 17.9804C45.9482 17.9804 46.9493 17.5252 47.5688 16.615C48.0446 15.9186 48.2822 14.9839 48.2819 13.8109V13.7834Z" fill="#0069FF"/>
<path d="M54.543 20.9287H54.5324C54.1439 20.9287 53.7713 20.7742 53.4966 20.4993C53.2219 20.2243 53.0676 19.8513 53.0676 19.4625V1.46919C53.0672 1.27639 53.1048 1.08541 53.1783 0.907173C53.2517 0.72894 53.3596 0.566955 53.4956 0.43049C53.6317 0.294025 53.7933 0.185761 53.9712 0.111891C54.1491 0.0380219 54.3398 -3.85594e-07 54.5324 0H54.543C54.9317 0.000931568 55.3041 0.156113 55.5787 0.431521C55.8533 0.706929 56.0076 1.08009 56.0077 1.46919V12.1687C56.9749 11.0211 58.3653 9.36702 60.1789 7.20635C60.3169 7.04164 60.4892 6.90908 60.6837 6.81791C60.8782 6.72674 61.0902 6.67916 61.305 6.67849V6.67849C62.5512 6.67849 63.2291 8.13654 62.4288 9.09253C61.2737 10.4712 60.4246 11.4868 59.8812 12.1394L64.0717 18.6631C64.2151 18.8848 64.2961 19.1412 64.306 19.4052C64.3159 19.6692 64.2543 19.9309 64.1279 20.1628C64.0014 20.3946 63.8147 20.588 63.5875 20.7224C63.3603 20.8568 63.1011 20.9273 62.8372 20.9264H62.8295C62.5839 20.9266 62.3422 20.865 62.1265 20.7473C61.9109 20.6295 61.7283 20.4594 61.5956 20.2525L57.8944 14.4948C56.8979 15.676 56.2693 16.407 56.0083 16.6877V19.4601C56.0086 19.6529 55.9709 19.8439 55.8974 20.0221C55.8239 20.2003 55.716 20.3622 55.5799 20.4986C55.4438 20.6351 55.2822 20.7433 55.1042 20.8171C54.9263 20.8909 54.7356 20.9288 54.543 20.9287Z" fill="#0069FF"/>
<path d="M77.6919 15.0753H68.2335C68.2274 15.0755 68.2214 15.0769 68.216 15.0796C68.2105 15.0823 68.2057 15.0862 68.2019 15.0909C68.1981 15.0957 68.1954 15.1012 68.194 15.1071C68.1925 15.113 68.1924 15.1192 68.1936 15.1252C68.5842 17.0286 69.8287 17.9801 71.9271 17.9797C72.7864 17.9797 73.5409 17.82 74.1905 17.5005C74.4917 17.3472 74.7682 17.1495 75.0108 16.914C75.4479 16.4859 76.124 16.4225 76.6759 16.6911C77.5607 17.1246 77.7892 18.3169 77.0861 19.0072C76.6856 19.3975 76.2331 19.7305 75.7414 19.9967C74.6285 20.6168 73.3565 20.9266 71.9253 20.9263C69.8551 20.9263 68.2059 20.2776 66.9778 18.9802C65.74 17.6923 65.1209 15.9639 65.1205 13.795C65.1201 11.6261 65.7255 9.89788 66.9368 8.61032C68.1477 7.31298 69.7631 6.66431 71.7829 6.66431C73.5532 6.66431 75.018 7.16772 76.1773 8.17455C77.3378 9.1716 78.0536 10.5417 78.3247 12.2847C78.4033 12.7403 78.4425 13.2019 78.4419 13.6642V14.3228C78.4422 14.4216 78.423 14.5194 78.3855 14.6108C78.3479 14.7021 78.2927 14.7851 78.223 14.855C78.1533 14.9249 78.0706 14.9804 77.9794 15.0182C77.8883 15.056 77.7906 15.0754 77.6919 15.0753V15.0753ZM75.3365 12.2859C74.919 10.5049 73.7337 9.6146 71.7806 9.615C69.8275 9.61539 68.643 10.5057 68.227 12.2859H75.3365Z" fill="#0069FF"/>
<path d="M47.1997 23.8987C47.1996 24.0706 47.1694 24.2411 47.1106 24.4025L43.1949 35.234C43.0398 35.6639 42.7537 36.0341 42.377 36.2925C42.0003 36.5508 41.5521 36.6842 41.0956 36.6739C40.6391 36.6635 40.1974 36.5099 39.8328 36.2347C39.4682 35.9595 39.1992 35.5767 39.0636 35.1402L34.6423 20.9193L32.2313 13.0027C32.2102 12.9341 32.1677 12.8741 32.1099 12.8316C32.0521 12.7891 31.9821 12.7665 31.9104 12.7669C31.8387 12.7674 31.7691 12.791 31.7118 12.8342C31.6546 12.8774 31.6128 12.9379 31.5926 13.0068L29.7816 19.2419C29.6408 19.7265 29.3467 20.1523 28.9436 20.4552C28.5404 20.7582 28.0498 20.922 27.5457 20.922C27.0415 20.922 26.551 20.7582 26.1478 20.4552C25.7446 20.1523 25.4506 19.7265 25.3098 19.2419L23.3722 12.5493C23.352 12.4803 23.3099 12.4196 23.2523 12.3765C23.1948 12.3334 23.1248 12.31 23.0529 12.31C22.981 12.31 22.911 12.3334 22.8534 12.3765C22.7959 12.4196 22.7538 12.4803 22.7336 12.5493L19.8426 22.4295L16.1619 35.0681C16.0265 35.5324 15.7442 35.9403 15.3574 36.2304C14.9706 36.5205 14.5002 36.6771 14.017 36.6768C13.5337 36.6765 13.0635 36.5192 12.6771 36.2286C12.2908 35.938 12.009 35.5297 11.8742 35.0651L9.78656 27.8576C9.7703 27.801 9.73607 27.7511 9.68903 27.7157C9.642 27.6802 9.58471 27.661 9.52583 27.661C9.46694 27.661 9.40966 27.6802 9.36262 27.7157C9.31559 27.7511 9.28135 27.801 9.2651 27.8576L7.12533 35.2065C7.00165 35.6306 6.7438 36.0032 6.39052 36.2681C6.03723 36.533 5.6076 36.6761 5.16617 36.6757C4.72474 36.6753 4.29536 36.5315 3.94255 36.2659C3.58974 36.0003 3.33256 35.6273 3.20965 35.203L0.0591734 24.3093C-0.0496029 23.9343 -0.00512314 23.5315 0.182828 23.1893C0.370779 22.8472 0.686804 22.5938 1.06138 22.485C1.43596 22.3761 1.83841 22.4206 2.18019 22.6087C2.52198 22.7969 2.7751 23.1132 2.88388 23.4882L4.85549 30.3145C4.87555 30.3836 4.91751 30.4444 4.97504 30.4876C5.03257 30.5309 5.10257 30.5543 5.17452 30.5543C5.24646 30.5543 5.31647 30.5309 5.374 30.4876C5.43153 30.4444 5.47348 30.3836 5.49355 30.3145L7.29759 24.1046C7.43833 23.62 7.73239 23.1942 8.13558 22.8913C8.53877 22.5883 9.0293 22.4245 9.53344 22.4245C10.0376 22.4245 10.5281 22.5883 10.9313 22.8913C11.3345 23.1942 11.6286 23.62 11.7693 24.1046L13.7075 30.7989C13.7277 30.8676 13.7695 30.9278 13.8268 30.9707C13.884 31.0135 13.9536 31.0367 14.0251 31.0367C14.0966 31.0367 14.1661 31.0135 14.2234 30.9707C14.2806 30.9278 14.3225 30.8676 14.3426 30.7989L16.7812 22.4225L20.916 8.27608C21.0517 7.81161 21.3343 7.40373 21.7213 7.11371C22.1083 6.82369 22.5788 6.6672 23.0623 6.66773C23.5457 6.66825 24.0159 6.82578 24.4023 7.11664C24.7887 7.40751 25.0703 7.816 25.205 8.28078L27.2867 15.4666C27.3036 15.5243 27.3386 15.575 27.3867 15.6111C27.4348 15.6472 27.4932 15.6667 27.5533 15.6667C27.6134 15.6667 27.6718 15.6472 27.7199 15.6111C27.768 15.575 27.8031 15.5243 27.8199 15.4666L29.9521 8.15057C30.078 7.72834 30.3363 7.35787 30.6888 7.09393C31.0413 6.83 31.4692 6.68661 31.9094 6.68496C32.3496 6.68332 32.7787 6.82351 33.1331 7.0848C33.4876 7.3461 33.7486 7.71463 33.8777 8.13591L37.7008 20.9216L40.8173 31.3842C40.8371 31.4511 40.8776 31.51 40.9329 31.5526C40.9881 31.5951 41.0554 31.6191 41.1251 31.6211C41.1947 31.6231 41.2633 31.6031 41.3209 31.5638C41.3785 31.5245 41.4223 31.468 41.446 31.4024L44.3363 23.4014C44.4542 23.0751 44.6832 22.8008 44.9831 22.6267C45.283 22.4527 45.6345 22.3899 45.976 22.4496C46.3175 22.5093 46.6271 22.6875 46.8503 22.9529C47.0736 23.2184 47.1962 23.5541 47.1968 23.9011L47.1997 23.8987Z" fill="#0069FF"/>
<path d="M31.8563 22.4283H32.4803C32.7881 22.4283 33.0833 22.5507 33.301 22.7686C33.5187 22.9865 33.641 23.2821 33.641 23.5902V35.4997C33.641 35.8117 33.5171 36.111 33.2967 36.3316C33.0763 36.5523 32.7773 36.6762 32.4656 36.6762H31.8709C31.5592 36.6762 31.2602 36.5523 31.0398 36.3316C30.8194 36.111 30.6956 35.8117 30.6956 35.4997C30.0862 36.0031 29.3644 36.3518 28.5915 36.5161L28.4322 36.5454C27.4727 36.7198 26.4896 36.7198 25.5301 36.5454L25.3708 36.5161C23.8036 36.1869 22.5752 35.4074 21.6853 34.1777C20.776 32.9484 20.3213 31.404 20.3213 29.5444C20.3213 27.6758 20.776 26.1217 21.6853 24.8823C22.5947 23.6522 23.8376 22.8825 25.4141 22.5732L25.5594 22.5292C26.5009 22.3744 27.4614 22.3744 28.4029 22.5292L28.5482 22.5732C29.3802 22.7476 30.096 23.0864 30.6956 23.5896C30.6957 23.2816 30.8181 22.9862 31.0357 22.7684C31.2534 22.5507 31.5485 22.4283 31.8563 22.4283V22.4283ZM30.6956 29.5291C30.6956 28.3561 30.4587 27.4218 29.9848 26.7262C29.3657 25.8187 28.3646 25.3649 26.9814 25.3649C25.5881 25.3649 24.5821 25.8201 23.9634 26.7303C23.499 27.4369 23.2667 28.3753 23.2667 29.5455C23.2667 30.7158 23.499 31.6501 23.9634 32.3484C24.5821 33.2688 25.5881 33.7288 26.9814 33.7285C28.3642 33.7285 29.3653 33.2733 29.9848 32.3631C30.4583 31.6659 30.6952 30.7316 30.6956 29.5602V29.5291Z" fill="#0069FF"/>
<path d="M60.2492 30.8229H50.8863C51.2636 32.7595 52.5114 33.7278 54.6297 33.7278C55.489 33.7278 56.2435 33.5681 56.8931 33.2486C57.1955 33.0956 57.4732 32.8979 57.7169 32.6621C58.1534 32.234 58.8301 32.1707 59.3815 32.4393C60.2668 32.8721 60.4947 34.0645 59.7916 34.7548C59.3901 35.1453 58.9366 35.4785 58.444 35.7448C57.3319 36.3641 56.0599 36.674 54.6279 36.6744C52.5577 36.6744 50.9085 36.0255 49.6804 34.7278C48.4426 33.4402 47.8235 31.712 47.8231 29.5431C47.8227 27.3742 48.4281 25.6458 49.6394 24.3579C50.8484 23.0605 52.4637 22.4119 54.4855 22.4119C56.2558 22.4119 57.7206 22.9155 58.8799 23.9227C60.0408 24.9197 60.7566 26.2898 61.0273 28.0329C61.1059 28.4885 61.1451 28.95 61.1445 29.4123V29.9249C61.1447 30.0428 61.1217 30.1595 61.0768 30.2684C61.032 30.3774 60.966 30.4764 60.8829 30.5598C60.7997 30.6432 60.701 30.7093 60.5922 30.7545C60.4835 30.7996 60.3669 30.8229 60.2492 30.8229V30.8229ZM58.0397 28.0341C57.6237 26.2531 56.4388 25.3624 54.485 25.362C52.5311 25.3616 51.3462 26.2523 50.9302 28.0341H58.0397Z" fill="#0069FF"/>
<path d="M68.3858 33.7279C68.6571 33.7289 68.9283 33.7142 69.1979 33.6839C69.4909 33.654 69.7787 33.5858 70.0539 33.4809C70.673 33.2385 70.9826 32.8415 70.9826 32.2898C70.9826 31.7381 70.673 31.3457 70.0539 31.1127C69.7787 31.0078 69.4909 30.9396 69.1979 30.9097C68.9283 30.8794 68.6571 30.8647 68.3858 30.8657C66.5765 30.8657 65.198 30.4059 64.2504 29.4863C63.4571 28.7113 63.0604 27.7624 63.0604 26.6394C63.0604 25.5055 63.4571 24.5567 64.2504 23.7931C65.1984 22.8727 66.5769 22.4127 68.3858 22.4131C70.1072 22.4131 71.442 22.8344 72.39 23.677C72.5275 23.8008 72.6567 23.9337 72.7767 24.0746C73.5636 24.9867 72.9653 26.4101 71.7654 26.5057C71.5375 26.5265 71.3079 26.4923 71.096 26.406C70.884 26.3197 70.6959 26.1837 70.5473 26.0095C70.3996 25.8316 70.1764 25.6895 69.8776 25.5831C69.6359 25.4886 69.382 25.4293 69.1235 25.4072C68.8779 25.3776 68.6308 25.3631 68.3835 25.3638C68.1313 25.3628 67.8792 25.3772 67.6288 25.4072C67.3667 25.4374 67.1087 25.4964 66.8595 25.5831C66.2794 25.7958 65.9894 26.1491 65.9894 26.6429C65.9894 27.1368 66.2794 27.4902 66.8595 27.7033C67.1088 27.7897 67.3668 27.8487 67.6288 27.8793C67.8792 27.9095 68.1313 27.924 68.3835 27.9227C70.2584 27.9227 71.6947 28.402 72.6923 29.3608C73.5149 30.1549 73.926 31.1324 73.9256 32.2933C73.9256 33.4663 73.5145 34.4491 72.6923 35.2416C71.6962 36.2 70.26 36.6793 68.3835 36.6797C66.5742 36.6797 65.1715 36.2342 64.1754 35.3431C63.9582 35.149 63.7619 34.9328 63.5895 34.6979C62.9198 33.7824 63.5643 32.481 64.694 32.3918C65.1814 32.3531 65.69 32.5343 65.9601 32.9402C66.1164 33.1713 66.3679 33.3521 66.7148 33.4827C66.9901 33.5874 67.2778 33.6556 67.5708 33.6856C67.8414 33.7155 68.1136 33.7296 68.3858 33.7279V33.7279Z" fill="#0069FF"/>
<path d="M83.5394 15.4988L80.8623 37.5982C80.8155 37.9851 80.6286 38.3413 80.3371 38.5996C80.0456 38.8579 79.6696 39.0004 79.2803 39V39C79.055 39.0002 78.8321 38.9525 78.6266 38.8601C78.421 38.7677 78.2373 38.6326 78.0878 38.4639C77.9382 38.2951 77.8262 38.0965 77.7591 37.8811C77.6919 37.6658 77.6712 37.4386 77.6984 37.2146L80.3742 15.1159C80.4211 14.729 80.6079 14.3727 80.8995 14.1144C81.191 13.8561 81.5669 13.7137 81.9562 13.7141V13.7141C82.1817 13.7136 82.4046 13.7611 82.6103 13.8534C82.8161 13.9457 82.9999 14.0806 83.1495 14.2494C83.2992 14.4181 83.4114 14.6168 83.4786 14.8322C83.5458 15.0476 83.5665 15.2748 83.5394 15.4988V15.4988Z" fill="#0069FF"/>
<path d="M89.1929 23.0818L91.5723 25.4713C91.7085 25.6074 91.8166 25.7692 91.8903 25.9472C91.9641 26.1252 92.002 26.3161 92.002 26.5088C92.002 26.7015 91.9641 26.8923 91.8903 27.0704C91.8166 27.2484 91.7085 27.4101 91.5723 27.5463L89.1911 29.9298C89.055 30.0665 88.8934 30.1749 88.7153 30.2488C88.5373 30.3228 88.3465 30.3609 88.1537 30.3609C87.961 30.3609 87.7702 30.3228 87.5922 30.2488C87.4141 30.1749 87.2525 30.0665 87.1164 29.9298V29.9298C86.9799 29.7936 86.8716 29.6318 86.7977 29.4536C86.7238 29.2754 86.6857 29.0844 86.6857 28.8914C86.6857 28.6985 86.7238 28.5075 86.7977 28.3293C86.8716 28.1511 86.9799 27.9892 87.1164 27.853L87.4211 27.5481C87.5576 27.4118 87.6659 27.25 87.7398 27.0718C87.8137 26.8936 87.8517 26.7026 87.8517 26.5097C87.8517 26.3167 87.8137 26.1257 87.7398 25.9475C87.6659 25.7693 87.5576 25.6075 87.4211 25.4713L87.1129 25.1628C86.8378 24.8883 86.6829 24.5156 86.6822 24.1268C86.6816 23.738 86.8352 23.3649 87.1094 23.0895L87.1146 23.0836C87.2506 22.9463 87.4125 22.8373 87.5907 22.7629C87.769 22.6885 87.9602 22.6501 88.1534 22.6499C88.3465 22.6497 88.5378 22.6878 88.7162 22.7619C88.8946 22.8361 89.0566 22.9448 89.1929 23.0818Z" fill="#0069FF"/>
</g>
<defs>
<clipPath id="clip0">
<rect width="92" height="39" fill="white"/>
</clipPath>
</defs>
</svg>
