<svg width="130" height="46" viewBox="0 0 130 46" fill="none" xmlns="http://www.w3.org/2000/svg">
<g clip-path="url(#clip0)">
<path d="M104.257 21.297C104.257 21.8648 104.242 22.422 104.21 22.9771C104.248 23.8182 104.257 24.672 104.257 25.5301V36.8142C104.257 41.363 100.568 45.0495 96.0159 45.0495V34.615C92.6427 35.8078 88.4278 35.5239 85.1309 33.6298C79.5782 30.3988 79.3492 25.1212 79.3492 21.1148V14.6337C79.3492 12.6443 80.6765 10.7968 82.6313 10.4133C84.0963 10.1252 85.4553 10.6103 86.384 11.5383C87.1324 12.282 87.5924 13.3095 87.5924 14.4494V23.5279C87.5924 30.0344 96.0159 30.5365 96.0159 23.3457V22.78C96.0328 22.6317 96.0371 22.4792 96.0371 22.3245V14.0278C96.1643 12.7905 96.8342 11.7163 97.8095 11.0489C98.4731 10.5955 99.2724 10.3307 100.137 10.3307C101.274 10.3307 102.302 10.7904 103.051 11.5383C103.799 12.282 104.259 13.3095 104.259 14.4494V21.297H104.257Z" fill="white"/>
<path d="M25.5013 23.3902C25.4102 26.939 23.5889 31.1255 19.1726 33.6743C17.7606 34.4942 16.2129 34.9476 14.6652 35.1765C11.5676 35.7231 6.55979 35.2231 3.23537 31.5811C0.226858 28.3035 0 23.9813 0 19.5215V8.23743C0 3.68862 3.69121 0 8.2432 0V10.9663C11.8856 9.23745 17.3514 9.64635 20.7649 12.1951C24.5897 15.0617 25.637 18.8393 25.5013 23.3902ZM15.8928 19.3859C14.5719 18.066 12.7973 17.8838 11.6588 18.1571C10.0199 18.566 8.83473 19.8414 8.38101 21.4792C8.01634 22.8436 8.24532 24.6191 9.51954 25.9835C10.8404 27.3479 12.4793 27.5767 13.709 27.3034C15.4857 26.8034 16.6687 25.5746 17.1246 23.8902C17.4871 22.5258 17.2136 20.6593 15.8928 19.3859Z" fill="white"/>
<path d="M45.1723 33.8565C41.621 35.8587 36.4754 35.8587 32.6039 33.6298C27.0491 30.3988 26.8201 25.1212 26.8201 21.1169V14.4473C26.8201 12.174 28.6647 10.3286 30.9417 10.3286C33.2167 10.3286 35.0633 12.1718 35.0633 14.4473V23.5258C35.0633 30.0323 43.4867 30.5344 43.4867 23.3436V14.4473C43.4867 12.174 45.3313 10.3286 47.6084 10.3286C49.8833 10.3286 51.73 12.1718 51.73 14.4473V21.2949C51.7278 26.2102 50.7716 30.67 45.1723 33.8565Z" fill="white"/>
<path d="M74.7253 14.0617C77.7317 17.3372 78.3677 22.1614 77.5493 25.5746C76.5486 29.67 74.5451 32.901 69.6708 34.6764C66.0284 35.9498 61.2474 35.5409 57.7407 32.901C54.0982 30.1255 52.5505 25.028 52.8219 21.7525C53.0487 18.2037 54.5074 14.1083 58.9704 11.5595C60.3357 10.7862 61.8856 10.2862 63.4333 10.0574C66.5287 9.51076 71.4009 10.3752 74.7253 14.0617ZM62.2015 25.8458C63.5223 27.2102 65.2969 27.3924 66.4354 27.0746C68.0743 26.6657 69.304 25.3903 69.7132 23.7525C70.0779 22.3881 69.851 20.6126 68.5747 19.2482C67.3005 17.9283 65.6149 17.655 64.3852 17.9749C62.6085 18.4304 61.4255 19.6592 61.0163 21.3415C60.6071 22.7059 60.8806 24.5725 62.2015 25.8458Z" fill="white"/>
<path d="M113.976 22.5703V26.6657C113.976 31.2145 110.285 34.9031 105.733 34.9031V24.8458C105.733 20.8415 105.961 14.8795 111.561 11.604C115.386 9.37516 120.531 9.37516 124.129 11.3773C127.25 13.1676 128.917 15.4579 129.782 18.0003C130.689 20.6698 128.654 23.4368 125.834 23.4368H125.751C123.991 23.4368 122.52 22.2673 121.905 20.6211C120.164 15.9727 113.976 17.1486 113.976 22.5703Z" fill="white"/>
</g>
<defs>
<clipPath id="clip0">
<rect width="130" height="45.0495" fill="white"/>
</clipPath>
</defs>
</svg>
