<svg xmlns="http://www.w3.org/2000/svg" viewBox="0 0 500 500"><g id="freepik--background-simple--inject-8--inject-32"><path d="M267,141.9C194.92,168,98.06,65.92,61.62,176.41c-33.86,102.68,87.49,163.34,175,154.89,95.8-9.25,164.18-104.92,158.28-198.88-1.77-28.11-22.22-78.4-59.21-68C299.33,74.56,310.06,126.28,267,141.9Z" style="fill:#CDD6F1;opacity:0.4"></path></g><g id="freepik--Shadow--inject-8--inject-32"><g id="freepik--shadow--inject-8--inject-32"><ellipse cx="250" cy="416.24" rx="193.89" ry="11.32" style="fill:#f5f5f5"></ellipse></g></g><g id="freepik--Yacht--inject-8--inject-32"><path d="M394.06,192.36l-47.31,47.31h31.67l34.66-51.75h-8.3A15.13,15.13,0,0,0,394.06,192.36Z" style="fill:#CDD6F1"></path><path d="M394.06,192.36l-47.31,47.31h31.67l34.66-51.75h-8.3A15.13,15.13,0,0,0,394.06,192.36Z" style="fill:#fff;opacity:0.800000011920929;isolation:isolate"></path><polygon points="402.08 194.75 404.77 200.32 408.5 194.75 402.08 194.75" style="fill:#CDD6F1"></polygon><polygon points="402.08 194.75 404.77 200.32 408.5 194.75 402.08 194.75" style="fill:#fff;opacity:0.6000000238418579;isolation:isolate"></polygon><path d="M418.94,196.38H401.83a2.42,2.42,0,0,1-2.41-2.41h0a2.41,2.41,0,0,1,2.41-2.41h17.11a2.41,2.41,0,0,1,2.41,2.41h0A2.42,2.42,0,0,1,418.94,196.38Z" style="fill:#CDD6F1"></path><path d="M418.94,196.38H401.83a2.42,2.42,0,0,1-2.41-2.41h0a2.41,2.41,0,0,1,2.41-2.41h17.11a2.41,2.41,0,0,1,2.41,2.41h0A2.42,2.42,0,0,1,418.94,196.38Z" style="fill:#fff;opacity:0.800000011920929;isolation:isolate"></path><path d="M264,285.6l29.67-48.68h90.09a18.47,18.47,0,0,1,18.47,18.47h0V285.6Z" style="fill:#CDD6F1"></path><path d="M264,285.6l29.67-48.68h90.09a18.47,18.47,0,0,1,18.47,18.47h0V285.6Z" style="fill:#fff;opacity:0.800000011920929;isolation:isolate"></path><rect x="213.44" y="224.11" width="109.59" height="86.34" style="fill:#CDD6F1"></rect><rect x="213.44" y="224.11" width="109.59" height="86.34" style="fill:#fff;opacity:0.10000000149011612;isolation:isolate"></rect><polygon points="267.18 224.11 213.44 309.85 213.44 245.55 226.88 224.11 267.18 224.11" style="fill:#CDD6F1"></polygon><polygon points="267.18 224.11 213.44 309.85 213.44 245.55 226.88 224.11 267.18 224.11" style="fill:#fff;opacity:0.6000000238418579;isolation:isolate"></polygon><polygon points="302.44 224.11 248.32 310.45 227.04 310.45 281.16 224.11 302.44 224.11" style="fill:#CDD6F1"></polygon><polygon points="302.44 224.11 248.32 310.45 227.04 310.45 281.16 224.11 302.44 224.11" style="fill:#fff;opacity:0.6000000238418579;isolation:isolate"></polygon><path d="M169.71,416.24H376A56.41,56.41,0,0,0,431.5,370H77.5A114.88,114.88,0,0,0,169.71,416.24Z" style="fill:#CDD6F1"></path><path d="M169.71,416.24H376A56.41,56.41,0,0,0,431.5,370H77.5A114.88,114.88,0,0,0,169.71,416.24Z" style="fill:#fff;opacity:0.10000000149011612;isolation:isolate"></path><path d="M291.67,218.11h50.19a27.67,27.67,0,0,1,27.67,27.67h0v83H291.67V218.11Z" style="fill:#CDD6F1"></path><path d="M291.67,218.11h50.19a27.67,27.67,0,0,1,27.67,27.67h0v83H291.67V218.11Z" style="fill:#fff;opacity:0.699999988079071;isolation:isolate"></path><path d="M120.52,289.17h40.16A10.27,10.27,0,0,1,171,299.44v30.82H120.52V289.17Z" style="fill:#CDD6F1"></path><path d="M120.52,289.17h40.16A10.27,10.27,0,0,1,171,299.44v30.82H120.52V289.17Z" style="fill:#fff;opacity:0.699999988079071;isolation:isolate"></path><rect x="121.52" y="290.16" width="26.9" height="10.03" style="fill:#CDD6F1"></rect><rect x="121.52" y="290.16" width="26.9" height="10.03" style="fill:#fff;opacity:0.10000000149011612;isolation:isolate"></rect><polygon points="413.08 328.82 343.75 328.82 343.75 256.56 413.08 281.67 413.08 328.82" style="fill:#CDD6F1"></polygon><polygon points="413.08 328.82 343.75 328.82 343.75 256.56 413.08 281.67 413.08 328.82" style="fill:#fff;opacity:0.699999988079071;isolation:isolate"></polygon><path d="M432.42,319.33v41.84a55.66,55.66,0,0,1-.91,8.83H77.5q-3.19-4.26-6-8.83c-.55-.88-1.08-1.77-1.6-2.67a114.53,114.53,0,0,1-15.26-57.3H303.17a52.13,52.13,0,0,1,26.16,7l7.38,4.27a50.64,50.64,0,0,0,25.42,6.83Z" style="fill:#CDD6F1"></path><path d="M432.42,319.33v41.84a55.66,55.66,0,0,1-.91,8.83H77.5q-3.19-4.26-6-8.83c-.55-.88-1.08-1.77-1.6-2.67a114.53,114.53,0,0,1-15.26-57.3H303.17a52.13,52.13,0,0,1,26.16,7l7.38,4.27a50.64,50.64,0,0,0,25.42,6.83Z" style="fill:#fff;opacity:0.800000011920929;isolation:isolate"></path><path d="M432.42,358.5v2.67H71.52c-.55-.88-1.08-1.77-1.6-2.67Z" style="fill:#CDD6F1"></path><path d="M432.42,358.5v2.67H71.52c-.55-.88-1.08-1.77-1.6-2.67Z" style="fill:#fff;opacity:0.10000000149011612;isolation:isolate"></path><path d="M60,304.33a1,1,0,0,1-1-1V275a1,1,0,0,1,1-1H246.91a1,1,0,0,1,0,2H61v27.33A1,1,0,0,1,60,304.33Z" style="fill:#CDD6F1"></path><path d="M83.36,304.33a1,1,0,0,1-1-1V275a1,1,0,0,1,2,0v28.33A1,1,0,0,1,83.36,304.33Z" style="fill:#CDD6F1"></path><path d="M246.91,304.33a1,1,0,0,1-1-1V275a1,1,0,0,1,2,0v28.33A1,1,0,0,1,246.91,304.33Z" style="fill:#CDD6F1"></path><path d="M223.54,304.33a1,1,0,0,1-1-1V275a1,1,0,0,1,2,0v28.33A1,1,0,0,1,223.54,304.33Z" style="fill:#CDD6F1"></path><path d="M200.18,304.33a1,1,0,0,1-1-1V275a1,1,0,0,1,2,0v28.33A1,1,0,0,1,200.18,304.33Z" style="fill:#CDD6F1"></path><path d="M176.82,304.33a1,1,0,0,1-1-1V275a1,1,0,0,1,2,0v28.33A1,1,0,0,1,176.82,304.33Z" style="fill:#CDD6F1"></path><path d="M153.45,304.33a1,1,0,0,1-1-1V275a1,1,0,0,1,2,0v28.33A1,1,0,0,1,153.45,304.33Z" style="fill:#CDD6F1"></path><path d="M130.09,304.33a1,1,0,0,1-1-1V275a1,1,0,0,1,2,0v28.33A1,1,0,0,1,130.09,304.33Z" style="fill:#CDD6F1"></path><path d="M106.73,304.33a1,1,0,0,1-1-1V275a1,1,0,0,1,2,0v28.33A1,1,0,0,1,106.73,304.33Z" style="fill:#CDD6F1"></path><g style="opacity:0.800000011920929"><path d="M60,304.33a1,1,0,0,1-1-1V275a1,1,0,0,1,1-1H246.91a1,1,0,0,1,0,2H61v27.33A1,1,0,0,1,60,304.33Z" style="fill:#fff"></path><path d="M83.36,304.33a1,1,0,0,1-1-1V275a1,1,0,0,1,2,0v28.33A1,1,0,0,1,83.36,304.33Z" style="fill:#fff"></path><path d="M246.91,304.33a1,1,0,0,1-1-1V275a1,1,0,0,1,2,0v28.33A1,1,0,0,1,246.91,304.33Z" style="fill:#fff"></path><path d="M223.54,304.33a1,1,0,0,1-1-1V275a1,1,0,0,1,2,0v28.33A1,1,0,0,1,223.54,304.33Z" style="fill:#fff"></path><path d="M200.18,304.33a1,1,0,0,1-1-1V275a1,1,0,0,1,2,0v28.33A1,1,0,0,1,200.18,304.33Z" style="fill:#fff"></path><path d="M176.82,304.33a1,1,0,0,1-1-1V275a1,1,0,0,1,2,0v28.33A1,1,0,0,1,176.82,304.33Z" style="fill:#fff"></path><path d="M153.45,304.33a1,1,0,0,1-1-1V275a1,1,0,0,1,2,0v28.33A1,1,0,0,1,153.45,304.33Z" style="fill:#fff"></path><path d="M130.09,304.33a1,1,0,0,1-1-1V275a1,1,0,0,1,2,0v28.33A1,1,0,0,1,130.09,304.33Z" style="fill:#fff"></path><path d="M106.73,304.33a1,1,0,0,1-1-1V275a1,1,0,0,1,2,0v28.33A1,1,0,0,1,106.73,304.33Z" style="fill:#fff"></path></g><path d="M211.78,342.37H117.5V328.83h94.28a6.78,6.78,0,0,1,6.78,6.77h0A6.78,6.78,0,0,1,211.78,342.37Z" style="fill:#CDD6F1"></path><path d="M211.78,342.37H117.5V328.83h94.28a6.78,6.78,0,0,1,6.78,6.77h0A6.78,6.78,0,0,1,211.78,342.37Z" style="fill:#fff;opacity:0.10000000149011612;isolation:isolate"></path><polygon points="149.33 342.37 137.12 342.37 145.61 328.82 157.82 328.82 149.33 342.37" style="fill:#CDD6F1"></polygon><polygon points="149.33 342.37 137.12 342.37 145.61 328.82 157.82 328.82 149.33 342.37" style="fill:#fff;opacity:0.6000000238418579;isolation:isolate"></polygon><polygon points="161.42 342.37 154.31 342.37 162.8 328.82 169.9 328.82 161.42 342.37" style="fill:#CDD6F1"></polygon><polygon points="161.42 342.37 154.31 342.37 162.8 328.82 169.9 328.82 161.42 342.37" style="fill:#fff;opacity:0.6000000238418579;isolation:isolate"></polygon><rect x="117.5" y="328.83" width="3.02" height="13.54" style="fill:#CDD6F1"></rect><rect x="117.5" y="328.83" width="3.02" height="13.54" style="opacity:0.20000000298023224;isolation:isolate"></rect><path d="M233.67,210.53l22-22a11.26,11.26,0,0,1,8-3.3h77.82a11.26,11.26,0,0,1,11.26,11.26h0v14Z" style="fill:#CDD6F1"></path><path d="M233.67,210.53l22-22a11.26,11.26,0,0,1,8-3.3h77.82a11.26,11.26,0,0,1,11.26,11.26h0v14Z" style="fill:#fff;opacity:0.699999988079071;isolation:isolate"></path><path d="M217.22,221l28.31-28.31a7.67,7.67,0,0,1,5.42-2.25h104.3a4,4,0,0,1,4.05,4.05h0v22.44a4,4,0,0,1-4,4.06h-138Z" style="fill:#CDD6F1"></path><path d="M217.22,221l28.31-28.31a7.67,7.67,0,0,1,5.42-2.25h104.3a4,4,0,0,1,4.05,4.05h0v22.44a4,4,0,0,1-4,4.06h-138Z" style="fill:#fff;opacity:0.800000011920929;isolation:isolate"></path><path d="M337.35,227.67H210.11l3.83-9.56h117a7,7,0,0,1,6.46,9.56Z" style="fill:#CDD6F1"></path><path d="M337.35,227.67H210.11l3.83-9.56h117a7,7,0,0,1,6.46,9.56Z" style="fill:#fff;opacity:0.699999988079071;isolation:isolate"></path><path d="M388,294H376.33a4.34,4.34,0,0,1-4.33-4.33h0a4.35,4.35,0,0,1,4.33-4.34H388a4.35,4.35,0,0,1,4.33,4.34h0A4.34,4.34,0,0,1,388,294Z" style="fill:#CDD6F1"></path><path d="M388,294H376.33a4.34,4.34,0,0,1-4.33-4.33h0a4.35,4.35,0,0,1,4.33-4.34H388a4.35,4.35,0,0,1,4.33,4.34h0A4.34,4.34,0,0,1,388,294Z" style="fill:#fff;opacity:0.10000000149011612;isolation:isolate"></path><path d="M388,305.53H376.33A4.34,4.34,0,0,1,372,301.2h0a4.35,4.35,0,0,1,4.33-4.34H388a4.35,4.35,0,0,1,4.33,4.34h0A4.34,4.34,0,0,1,388,305.53Z" style="fill:#CDD6F1"></path><path d="M388,305.53H376.33A4.34,4.34,0,0,1,372,301.2h0a4.35,4.35,0,0,1,4.33-4.34H388a4.35,4.35,0,0,1,4.33,4.34h0A4.34,4.34,0,0,1,388,305.53Z" style="fill:#fff;opacity:0.10000000149011612;isolation:isolate"></path></g><g id="freepik--Character--inject-8--inject-32"><g id="freepik--character--inject-8--inject-32"><path d="M179.24,165.06a39.35,39.35,0,0,1,2.69,3c.86,1.05,1.68,2,2.5,3,1.65,2,3.19,4.11,4.69,6.26a74.26,74.26,0,0,1,7.78,14c.25.64.48,1.31.72,2l.36,1a9.62,9.62,0,0,1,.42,1.84,12.51,12.51,0,0,1-.77,5.87,27.73,27.73,0,0,1-4.48,7.6,62.23,62.23,0,0,1-11.44,10.85l-3.77-4a104.6,104.6,0,0,0,8.12-11.69,21.92,21.92,0,0,0,2.44-5.59,2.79,2.79,0,0,0,.05-1.49h0l-.34-.74c-.23-.49-.43-1-.68-1.48a78.12,78.12,0,0,0-7.4-11.69c-1.4-1.91-2.88-3.77-4.38-5.63-.75-.92-1.51-1.84-2.29-2.74l-2.28-2.63Z" style="fill:#e4897b"></path><polygon points="171.88 219.53 176.15 227.96 180.32 224.37 176.9 218.38 171.88 219.53" style="fill:#e4897b"></polygon><path d="M139.34,170.7l-2,2.77c-.66.95-1.31,1.92-1.94,2.89-1.27,1.95-2.53,3.9-3.7,5.89a82.81,82.81,0,0,0-6.11,12.07l-.29.76-.14.35h0a1,1,0,0,0-.09.41,8.25,8.25,0,0,0,.4,2.26,32.48,32.48,0,0,0,2.59,5.81,132.45,132.45,0,0,0,7.48,11.84l-4,3.79a70.59,70.59,0,0,1-10.58-11,36.87,36.87,0,0,1-4.28-7,17.74,17.74,0,0,1-1.4-4.78,11.58,11.58,0,0,1,.06-3.22,4.52,4.52,0,0,1,.2-.91l.15-.52.28-1c.36-1.31.82-2.54,1.25-3.79s1-2.46,1.48-3.63c1-2.39,2.2-4.67,3.41-6.92s2.54-4.41,3.92-6.54q1-1.59,2.13-3.15c.73-1.07,1.45-2,2.31-3.14Z" style="fill:#e4897b"></path><path d="M134.06,214.34l4.68,2.3-4.46,8.08s-3.08-3.17-3.89-6.66Z" style="fill:#e4897b"></path><polygon points="142.74 222.78 138.74 229.27 134.28 224.72 138.74 216.64 142.74 222.78" style="fill:#e4897b"></polygon><path d="M166.33,134.17c-.06.59.2,1.11.58,1.17s.75-.38.81-1-.2-1.11-.58-1.17S166.4,133.58,166.33,134.17Z" style="fill:#263238"></path><path d="M166.48,135.28a22.41,22.41,0,0,0,2.26,5.45,3.37,3.37,0,0,1-2.86.12Z" style="fill:#de5753"></path><path d="M164.64,130.6a.35.35,0,0,1-.34-.36.34.34,0,0,1,.17-.29,3.43,3.43,0,0,1,3.16-.09.35.35,0,0,1,.2.45.36.36,0,0,1-.45.21l-.08-.05a2.73,2.73,0,0,0-2.5.09A.29.29,0,0,1,164.64,130.6Z" style="fill:#263238"></path><path d="M146.71,138.43c1.26,5.38,2.7,15.22-.93,18.81,0,0,1.68,5.45,11.67,5.45,11,0,5-5.45,5-5.45-6-1.43-6.07-5.88-5.18-10.05Z" style="fill:#e4897b"></path><path d="M144.42,159.11c-.86-1.72-1.8-3.7,0-4.32,2-.68,12.71-1.37,16.49-.1a4,4,0,0,1,2.85,4.78Z" style="fill:#263238"></path><path d="M131,410a8.82,8.82,0,0,1-1.92-.21.15.15,0,0,1-.13-.13.18.18,0,0,1,.07-.18c.08-.06,2-1.44,3.12-1.2a.82.82,0,0,1,.58.41.71.71,0,0,1,0,.83C132.44,409.91,131.71,410,131,410Zm-1.43-.46c1.1.18,2.6.18,2.9-.23,0,0,.12-.16-.05-.45a.47.47,0,0,0-.35-.24,4.59,4.59,0,0,0-2.54.94Z" style="fill:#CDD6F1"></path><path d="M129.08,409.82H129a.18.18,0,0,1-.08-.15c0-.09.09-2.21.92-2.91a1,1,0,0,1,.74-.23.58.58,0,0,1,.57.47c.16.82-1.24,2.42-2,2.83Zm1.37-3a.58.58,0,0,0-.39.15,4.08,4.08,0,0,0-.78,2.31c.72-.57,1.61-1.78,1.52-2.26,0,0,0-.17-.27-.2Z" style="fill:#CDD6F1"></path><path d="M175.08,410a12.26,12.26,0,0,1-2.26-.21.17.17,0,0,1-.14-.14.18.18,0,0,1,.08-.18c.37-.21,3.63-2.08,4.42-.79a.68.68,0,0,1,0,.77C176.92,409.89,176,410,175.08,410Zm-1.71-.47c1.38.2,3.24.17,3.56-.28,0,0,.1-.14-.05-.39-.44-.71-2.42.14-3.51.69Z" style="fill:#CDD6F1"></path><path d="M172.85,409.82h-.1a.17.17,0,0,1-.07-.16c0-.08.12-2.06,1-2.83a1.19,1.19,0,0,1,1-.3c.49.05.63.3.66.5.14.85-1.53,2.4-2.41,2.8Zm1.68-3a.88.88,0,0,0-.6.23,4,4,0,0,0-.87,2.27c.88-.54,2-1.77,1.93-2.28,0-.05,0-.18-.36-.22Z" style="fill:#CDD6F1"></path><polygon points="164.77 409.64 172.12 409.64 172.19 392.63 164.85 392.63 164.77 409.64" style="fill:#e4897b"></polygon><polygon points="120.66 409.64 128.01 409.64 131.05 392.63 123.7 392.63 120.66 409.64" style="fill:#e4897b"></polygon><path d="M128.5,408.79h-8.25a.61.61,0,0,0-.61.51l-1.2,6.53a1.14,1.14,0,0,0,1,1.29h.18c2.88-.05,4.27-.22,7.9-.22,2.23,0,6.84.24,9.93.24s3.36-3,2.09-3.33c-5.71-1.24-7.91-2.95-9.78-4.57A1.79,1.79,0,0,0,128.5,408.79Z" style="fill:#263238"></path><path d="M172,408.79h-8a.61.61,0,0,0-.61.51l-1.2,6.53a1.11,1.11,0,0,0,.9,1.28.75.75,0,0,0,.21,0c2.89-.05,7.06-.22,10.7-.22,4.26,0,7.94.24,12.92.24,3,0,3.74-3,2.47-3.33-5.8-1.26-10.5-1.39-15.58-4.45A3.44,3.44,0,0,0,172,408.79Z" style="fill:#263238"></path><path d="M132.7,158.9c-6.83,1.58-14,20.35-14,20.35l14.19,9.48a110.52,110.52,0,0,0,8.54-15.53C145.18,164.61,139.67,157.29,132.7,158.9Z" style="fill:#CDD6F1"></path><path d="M132.7,158.9c-6.83,1.58-14,20.35-14,20.35l14.19,9.48a110.52,110.52,0,0,0,8.54-15.53C145.18,164.61,139.67,157.29,132.7,158.9Z" style="fill:#fff;opacity:0.10000000149011612;isolation:isolate"></path><path d="M138.09,170.87l-5.87,17.41.67.45s2.68-4,5.53-9.33Z" style="fill:#CDD6F1"></path><path d="M138.09,170.87l-5.87,17.41.67.45s2.68-4,5.53-9.33Z" style="opacity:0.10000000149011612;isolation:isolate"></path><path d="M178.53,191.72c-.06,8.2-.55,18.4-1.77,31.06h-39.3c-.51-6,2.15-35.46-4.76-63.88a101.16,101.16,0,0,1,13.09-1.66,145.38,145.38,0,0,1,16.7,0,74.14,74.14,0,0,1,11.37,2s3.36,3.64,4.38,20.71C178.44,183.36,178.55,187.24,178.53,191.72Z" style="fill:#CDD6F1"></path><path d="M178.53,191.72c-.06,8.2-.55,18.4-1.77,31.06h-39.3c-.51-6,2.15-35.46-4.76-63.88a101.16,101.16,0,0,1,13.09-1.66,145.38,145.38,0,0,1,16.7,0,74.14,74.14,0,0,1,11.37,2s3.36,3.64,4.38,20.71C178.44,183.36,178.55,187.24,178.53,191.72Z" style="fill:#fff;opacity:0.10000000149011612;isolation:isolate"></path><path d="M178.53,191.72c-2.38-4.34-6.7-13.05-6.09-18l5.8,6.28C178.44,183.36,178.55,187.24,178.53,191.72Z" style="fill:#CDD6F1"></path><path d="M178.53,191.72c-2.38-4.34-6.7-13.05-6.09-18l5.8,6.28C178.44,183.36,178.55,187.24,178.53,191.72Z" style="opacity:0.10000000149011612;isolation:isolate"></path><path d="M166.16,165.92c-.62,7,15.25,23.84,15.25,23.84l12.72-10.36a81.73,81.73,0,0,0-11.89-15.5C174.8,156.71,166.86,158.08,166.16,165.92Z" style="fill:#CDD6F1"></path><path d="M166.16,165.92c-.62,7,15.25,23.84,15.25,23.84l12.72-10.36a81.73,81.73,0,0,0-11.89-15.5C174.8,156.71,166.86,158.08,166.16,165.92Z" style="fill:#fff;opacity:0.10000000149011612;isolation:isolate"></path><polygon points="172.19 392.64 172.16 401.4 164.81 401.4 164.84 392.64 172.19 392.64" style="fill:#ce6f64"></polygon><polygon points="123.7 392.64 131.05 392.64 129.48 401.4 122.13 401.4 123.7 392.64" style="fill:#ce6f64"></polygon><path d="M146.91,130.07c-.33,7.31-.89,11.55,2.35,15.8a9.48,9.48,0,0,0,16.6-2.61c2.24-6.28,2.41-17.18-4.33-21.08a9.58,9.58,0,0,0-14.62,7.89Z" style="fill:#e4897b"></path><path d="M156.38,114.92c-4.78-2-10.77-1.62-11.26,2-.6,4.37-4,.29-5,6.77-.64,4.24,2.91,19,8.31,20.29,8.11,1.91,12-8.13,12.93-16.64,0,0,9.59,3,8.59-3.23A14.05,14.05,0,0,0,162.7,114S167,119.28,156.38,114.92Z" style="fill:#263238"></path><path d="M156.4,133.59a8.63,8.63,0,0,0,2.28,4.88c1.67,1.76,3.28.64,3.47-1.52.16-1.95-.51-5.21-2.5-6.17S156.17,131.4,156.4,133.59Z" style="fill:#e4897b"></path><path d="M145.78,117.59a6.14,6.14,0,0,1-5.68-1S142.23,122.15,145.78,117.59Z" style="fill:#263238"></path><path d="M172.75,110.77c.07,2.16-1.23,4.91-2.27,6.67a10.33,10.33,0,0,1-1.24,1.76l-29.18,2.62c-9.42-10.12,1.67-6.92,7.73-8,8-1.44,8.47-3.64,16.47-5.67C170.72,106.49,172.67,108.23,172.75,110.77Z" style="fill:#CDD6F1"></path><path d="M172.75,110.77c.07,2.16-1.23,4.91-2.27,6.67a10.33,10.33,0,0,1-1.24,1.76l-29.18,2.62c-9.42-10.12,1.67-6.92,7.73-8,8-1.44,8.47-3.64,16.47-5.67C170.72,106.49,172.67,108.23,172.75,110.77Z" style="fill:#fff;opacity:0.800000011920929;isolation:isolate"></path><path d="M172.71,121.6a29.13,29.13,0,0,1-2.44-2l-.11-.85-30.58,2.61.16,1.25,25.41-2.17A20.25,20.25,0,0,0,172.71,121.6Z" style="fill:#CDD6F1"></path><path d="M172.71,121.6a29.13,29.13,0,0,1-2.44-2l-.11-.85-30.58,2.61.16,1.25,25.41-2.17A20.25,20.25,0,0,0,172.71,121.6Z" style="fill:#fff;opacity:0.10000000149011612;isolation:isolate"></path><path d="M172.75,110.77c.07,2.16-1.23,4.91-2.27,6.67a4.94,4.94,0,0,1-.1-3.72A4.54,4.54,0,0,1,172.75,110.77Z" style="fill:#CDD6F1"></path><path d="M172.75,110.77c.07,2.16-1.23,4.91-2.27,6.67a4.94,4.94,0,0,1-.1-3.72A4.54,4.54,0,0,1,172.75,110.77Z" style="fill:#fff;opacity:0.6000000238418579;isolation:isolate"></path><path d="M162.81,222.78s-6.16,56.14-9.93,77.17c-4.12,23-20,99.76-20,99.76h-13.5s9.56-74.87,11.54-97.67c2.15-24.75,6.54-79.26,6.54-79.26Z" style="fill:#263238"></path><path d="M134.79,394.75c.06,0-1.19,5.17-1.19,5.17H118.47l.1-4.61Z" style="fill:#CDD6F1"></path><path d="M134.79,394.75c.06,0-1.19,5.17-1.19,5.17H118.47l.1-4.61Z" style="opacity:0.30000001192092896;isolation:isolate"></path><path d="M158.32,242.78c-9.57,1.89-7.16,37.84-5.29,56.33,2.28-13.07,5.38-38.22,7.47-56.07A3.35,3.35,0,0,0,158.32,242.78Z" style="fill:#CDD6F1"></path><path d="M158.32,242.78c-9.57,1.89-7.16,37.84-5.29,56.33,2.28-13.07,5.38-38.22,7.47-56.07A3.35,3.35,0,0,0,158.32,242.78Z" style="opacity:0.800000011920929;isolation:isolate"></path><path d="M176.75,222.78s3.14,54.92,3.2,77.33c.07,23.3-5.12,99.6-5.12,99.6H162.38s-3.35-74.94-4.79-97.82c-1.56-24.95-6.67-79.11-6.67-79.11Z" style="fill:#263238"></path><path d="M179.76,215.72l-3.49.28a1.92,1.92,0,0,0-1.75,2.07,1.78,1.78,0,0,0,.07.39l1.44,4.85a2.56,2.56,0,0,0,3.2,1.69,2.64,2.64,0,0,0,.8-.41,13.09,13.09,0,0,0,3.73-6.21Z" style="fill:#e4897b"></path><path d="M171.88,390.77h0a.14.14,0,0,1-.12-.14c1.38-21.11,4.58-72.2,4.52-90.52-.05-18.75-2.28-60.69-3-73.1a.12.12,0,0,1,.11-.13h0a.13.13,0,0,1,.13.12c.68,12.41,2.91,54.35,3,73.11.06,18.33-3.14,69.42-4.52,90.54a.12.12,0,0,1-.12.12Z" style="fill:#CDD6F1"></path><path d="M171.88,390.77h0a.14.14,0,0,1-.12-.14c1.38-21.11,4.58-72.2,4.52-90.52-.05-18.75-2.28-60.69-3-73.1a.12.12,0,0,1,.11-.13h0a.13.13,0,0,1,.13.12c.68,12.41,2.91,54.35,3,73.11.06,18.33-3.14,69.42-4.52,90.54a.12.12,0,0,1-.12.12Z" style="opacity:0.4000000059604645;isolation:isolate"></path><path d="M177,394.75c.06,0-.5,5.17-.5,5.17H161.39l-.59-4.61Z" style="fill:#CDD6F1"></path><path d="M177,394.75c.06,0-.5,5.17-.5,5.17H161.39l-.59-4.61Z" style="opacity:0.30000001192092896;isolation:isolate"></path></g></g></svg>