<svg width="85" height="85" viewBox="0 0 85 85" fill="none" xmlns="http://www.w3.org/2000/svg">
<circle cx="42.5" cy="42.5" r="42.5" fill="#101D42"/>
<path d="M55.9719 48.414C55.8755 52.1181 53.9493 56.4878 49.2783 59.1481C47.7848 60.004 46.1479 60.4772 44.5109 60.716C41.2347 61.2866 35.9381 60.7647 32.4219 56.9633C29.2399 53.5422 29 49.0309 29 44.3759V32.598C29 27.8501 32.9041 24 37.7186 24V35.4463C41.5711 33.6417 47.352 34.0685 50.9624 36.7289C55.0077 39.7209 56.1155 43.6639 55.9719 48.414ZM45.8093 44.2344C44.4122 42.8567 42.5353 42.6665 41.3311 42.9518C39.5977 43.3786 38.3442 44.7098 37.8643 46.4193C37.4786 47.8434 37.7208 49.6966 39.0685 51.1207C40.4655 52.5449 42.1989 52.7837 43.4996 52.4984C45.3787 51.9765 46.63 50.6939 47.1121 48.9359C47.4956 47.5117 47.2063 45.5635 45.8093 44.2344Z" fill="white"/>
</svg>
